<mxfile host="Electron" agent="Mozilla/5.0 (X11; Linux x86_64) AppleWebKit/537.36 (KHTML, like Gecko) draw.io/26.1.1 Chrome/138.0.7204.157 Electron/37.2.4 Safari/537.36" version="26.1.1">
  <diagram id="njIiju-AVSU0POU4GLiy" name="Page-1">
    <mxGraphModel dx="1195" dy="696" grid="1" gridSize="10" guides="1" tooltips="1" connect="1" arrows="1" fold="1" page="1" pageScale="1" pageWidth="850" pageHeight="1100" math="0" shadow="0">
      <root>
        <mxCell id="0" />
        <mxCell id="1" parent="0" />
        <mxCell id="NeJ6TIGh4lUE9vMk7l9H-2" value="Actor" style="shape=umlActor;verticalLabelPosition=bottom;verticalAlign=top;html=1;outlineConnect=0;" parent="1" vertex="1">
          <mxGeometry x="40" y="200" width="30" height="60" as="geometry" />
        </mxCell>
        <mxCell id="NeJ6TIGh4lUE9vMk7l9H-4" value="Eigener&lt;br&gt;transparenter&lt;br&gt;Proxy" style="ellipse;shape=cloud;whiteSpace=wrap;html=1;" parent="1" vertex="1">
          <mxGeometry x="200" y="150" width="120" height="80" as="geometry" />
        </mxCell>
        <mxCell id="NeJ6TIGh4lUE9vMk7l9H-10" value="" style="endArrow=classic;html=1;rounded=0;" parent="1" edge="1">
          <mxGeometry width="50" height="50" relative="1" as="geometry">
            <mxPoint x="80" y="240" as="sourcePoint" />
            <mxPoint x="200" y="190" as="targetPoint" />
          </mxGeometry>
        </mxCell>
        <mxCell id="NeJ6TIGh4lUE9vMk7l9H-11" value="IPv4" style="edgeLabel;html=1;align=center;verticalAlign=middle;resizable=0;points=[];" parent="NeJ6TIGh4lUE9vMk7l9H-10" vertex="1" connectable="0">
          <mxGeometry x="0.27" y="1" relative="1" as="geometry">
            <mxPoint x="-16" y="-7" as="offset" />
          </mxGeometry>
        </mxCell>
        <mxCell id="NeJ6TIGh4lUE9vMk7l9H-12" value="" style="endArrow=classic;html=1;rounded=0;" parent="1" edge="1">
          <mxGeometry width="50" height="50" relative="1" as="geometry">
            <mxPoint x="80" y="240" as="sourcePoint" />
            <mxPoint x="440" y="240" as="targetPoint" />
          </mxGeometry>
        </mxCell>
        <mxCell id="NeJ6TIGh4lUE9vMk7l9H-13" value="IPv6" style="edgeLabel;html=1;align=center;verticalAlign=middle;resizable=0;points=[];" parent="NeJ6TIGh4lUE9vMk7l9H-12" vertex="1" connectable="0">
          <mxGeometry x="0.27" y="1" relative="1" as="geometry">
            <mxPoint x="-129" y="-9" as="offset" />
          </mxGeometry>
        </mxCell>
        <mxCell id="NeJ6TIGh4lUE9vMk7l9H-14" value="" style="endArrow=classic;html=1;rounded=0;" parent="1" edge="1">
          <mxGeometry width="50" height="50" relative="1" as="geometry">
            <mxPoint x="320" y="189.8" as="sourcePoint" />
            <mxPoint x="440" y="240" as="targetPoint" />
          </mxGeometry>
        </mxCell>
        <mxCell id="NeJ6TIGh4lUE9vMk7l9H-15" value="IPv6" style="edgeLabel;html=1;align=center;verticalAlign=middle;resizable=0;points=[];" parent="NeJ6TIGh4lUE9vMk7l9H-14" vertex="1" connectable="0">
          <mxGeometry x="0.27" y="1" relative="1" as="geometry">
            <mxPoint x="-8" y="-15" as="offset" />
          </mxGeometry>
        </mxCell>
        <mxCell id="NeJ6TIGh4lUE9vMk7l9H-18" value="Reverse Proxy&lt;br&gt;(Traefik / nginx)" style="rounded=1;whiteSpace=wrap;html=1;" parent="1" vertex="1">
          <mxGeometry x="440" y="220" width="100" height="40" as="geometry" />
        </mxCell>
        <mxCell id="NeJ6TIGh4lUE9vMk7l9H-19" value="&lt;font style=&quot;font-size: 8px;&quot;&gt;[::]:443&lt;/font&gt;" style="text;html=1;strokeColor=none;fillColor=none;align=center;verticalAlign=middle;whiteSpace=wrap;rounded=0;" parent="1" vertex="1">
          <mxGeometry x="410" y="243" width="30" height="10" as="geometry" />
        </mxCell>
        <mxCell id="NeJ6TIGh4lUE9vMk7l9H-21" value="Actor" style="shape=umlActor;verticalLabelPosition=bottom;verticalAlign=top;html=1;outlineConnect=0;" parent="1" vertex="1">
          <mxGeometry x="40" y="320" width="30" height="60" as="geometry" />
        </mxCell>
        <mxCell id="NeJ6TIGh4lUE9vMk7l9H-22" value="Reverse Proxy&lt;br&gt;(Traefik / nginx)" style="rounded=1;whiteSpace=wrap;html=1;" parent="1" vertex="1">
          <mxGeometry x="440" y="340" width="100" height="40" as="geometry" />
        </mxCell>
        <mxCell id="NeJ6TIGh4lUE9vMk7l9H-23" value="" style="endArrow=classic;html=1;rounded=0;" parent="1" edge="1">
          <mxGeometry width="50" height="50" relative="1" as="geometry">
            <mxPoint x="80" y="359.76" as="sourcePoint" />
            <mxPoint x="440" y="359.76" as="targetPoint" />
          </mxGeometry>
        </mxCell>
        <mxCell id="NeJ6TIGh4lUE9vMk7l9H-24" value="IPv4 / IPv6" style="edgeLabel;html=1;align=center;verticalAlign=middle;resizable=0;points=[];" parent="NeJ6TIGh4lUE9vMk7l9H-23" vertex="1" connectable="0">
          <mxGeometry x="0.27" y="1" relative="1" as="geometry">
            <mxPoint x="-49" y="-9" as="offset" />
          </mxGeometry>
        </mxCell>
        <mxCell id="NeJ6TIGh4lUE9vMk7l9H-25" value="&lt;font style=&quot;font-size: 8px;&quot;&gt;[::]:443&lt;/font&gt;" style="text;html=1;strokeColor=none;fillColor=none;align=center;verticalAlign=middle;whiteSpace=wrap;rounded=0;" parent="1" vertex="1">
          <mxGeometry x="410" y="363" width="30" height="10" as="geometry" />
        </mxCell>
      </root>
    </mxGraphModel>
  </diagram>
</mxfile>
